# xmcd
# 
# Track frame offsets:
#     150
#     20278
#     42253
#     67443
#     87150
#     101951
#     120097
#     138115
#     155747
#     182776
#     200549
#     219389
#     236846
# 
# Disc length: 3339
# 
# Revision: 1
# Processed by: cddbd v1.5.2PL0 Copyright (c) Steve Scherf et al.
# Submitted via: fre:ac v1.0.17
# 
DISCID=b80d090d
DTITLE=Bluetune - Hometown Blues
DYEAR=2003
DGENRE=Blues
TTITLE0=Traveling Blues
TTITLE1=Hometown Blues
TTITLE2=You can stay
TTITLE3=Feel the Blues
TTITLE4=Good old shoes
TTITLE5=Paint my mailbox blue
TTITLE6=Times in trouble
TTITLE7=Crying
TTITLE8=Blues for the lost days
TTITLE9=Ready
TTITLE10=Meltdown
TTITLE11=Dancing shoes
TTITLE12=Look back to the roots
EXTD=
EXTT0=
EXTT1=
EXTT2=
EXTT3=
EXTT4=
EXTT5=
EXTT6=
EXTT7=
EXTT8=
EXTT9=
EXTT10=
EXTT11=
EXTT12=
PLAYORDER=
